<svg xmlns="http://www.w3.org/2000/svg" width="547" height="483" viewBox="0 0 547 483"><g><g><path fill="#ebebeb" d="M19.011 445.637v-.324h42.938v.324z"/></g><g><path fill="#ebebeb" d="M126.447 449.163v-.324h57.691v.324z"/></g><g><path fill="#ebebeb" d="M63.245 433.606v-.324h91.295v.324z"/></g><g><path fill="#ebebeb" d="M517.815 435.784v-.324h16.451v.324z"/></g><g><path fill="#ebebeb" d="M458.516 435.784v-.324h47.747v.324z"/></g><g><path fill="#ebebeb" d="M310.385 441.255v-.324h40.345v.324z"/></g><g><path fill="#ebebeb" d="M258.255.26a7.092 7.092 0 0 1 7.079 7.078v351.891a7.092 7.092 0 0 1-7.079 7.079H7.926a7.079 7.079 0 0 1-7.065-7.079V7.338A7.079 7.079 0 0 1 7.926.259zm0 366.372a7.403 7.403 0 0 0 7.403-7.403V7.403A7.403 7.403 0 0 0 258.255 0H7.926a7.403 7.403 0 0 0-7.39 7.338v351.891a7.403 7.403 0 0 0 7.39 7.403z"/></g><g><path fill="#ebebeb" d="M538.687.26a7.092 7.092 0 0 1 7.079 7.078v351.891a7.092 7.092 0 0 1-7.079 7.079H288.345a7.092 7.092 0 0 1-7.078-7.079V7.338a7.092 7.092 0 0 1 7.078-7.079zm7.377 358.97V7.337A7.403 7.403 0 0 0 538.687 0H288.345a7.416 7.416 0 0 0-7.402 7.338v351.891a7.416 7.416 0 0 0 7.402 7.403h250.342a7.403 7.403 0 0 0 7.377-7.403z"/></g><g><path fill="#ebebeb" d="M466.553 44.338v151.164H88.137V44.338z"/></g><g><path fill="#e0e0e0" d="M83.664 195.502V44.338h4.46v151.164z"/></g><g><path fill="#fff" d="M452.928 57.95v123.927H101.75V57.95z"/></g><g><path fill="#f5f5f5" d="M337.066 181.877h19.744l56.797-123.913h-19.732z"/></g><g><path fill="#f5f5f5" d="M309.127 181.877h19.732l56.81-123.913h-19.745z"/></g><g><path fill="#f5f5f5" d="M126.161 181.877h19.745l56.81-123.913H182.97z"/></g><g><path fill="#e0e0e0" d="M503.761 424.453H397.324l-9.438-175.978H494.31z"/></g><g><path fill="#f0f0f0" d="M507.015 424.453H400.578l-9.438-175.978h106.424z"/></g><g><path fill="#fafafa" d="M448.676 406.303h-3.89a2.787 2.787 0 0 1-2.787-2.891l4.706-134.078a2.8 2.8 0 0 1 2.8-2.696h3.89a2.8 2.8 0 0 1 2.8 2.89l-4.77 134.078a2.787 2.787 0 0 1-2.75 2.697z"/></g><g><path fill="#fafafa" d="M473.814 406.303h-3.89a2.8 2.8 0 0 1-2.787-2.891l4.706-134.078a2.813 2.813 0 0 1 2.8-2.696h3.89a2.8 2.8 0 0 1 2.8 2.89l-4.72 134.078a2.787 2.787 0 0 1-2.8 2.697z"/></g><g><path fill="#fafafa" d="M423.525 406.303h-3.89a2.813 2.813 0 0 1-2.8-2.891l4.771-134.078a2.787 2.787 0 0 1 2.787-2.696h3.89a2.787 2.787 0 0 1 2.787 2.89l-4.706 134.078a2.8 2.8 0 0 1-2.84 2.697z"/></g><g><path fill="#f0f0f0" d="M43.112 417.167V279.46h23.997v137.707z"/></g><g><path fill="#f0f0f0" d="M47.714 424.453v-7.273H312.07v7.273z"/></g><g><path fill="#f5f5f5" d="M316.673 279.473V417.18H67.109V279.473z"/></g><g><path fill="#f0f0f0" d="M40.091 279.473v-6.353H64.62v6.353z"/></g><g><path fill="#fafafa" d="M319.693 273.107v6.353H64.62v-6.353z"/></g><g><path fill="#e0e0e0" d="M77.35 294.408h229.016v36.053H77.286zm230.701-1.608H75.731v39.282h232.32z"/></g><g><path fill="#e0e0e0" d="M77.35 343.322h229.016v58.91H77.286zm230.701-1.62H75.731v62.138h232.32z"/></g><g><path fill="#e0e0e0" d="M108.666 315.008a1.64 1.64 0 0 1-1.64-1.64v-1.88c0-.906.734-1.64 1.64-1.64h166.436c.906 0 1.64.734 1.64 1.64v1.88a1.64 1.64 0 0 1-1.64 1.64z"/></g><g><path fill="#e0e0e0" d="M108.666 363.922a1.64 1.64 0 0 1-1.64-1.64v-1.88c0-.905.734-1.64 1.64-1.64h166.436c.906 0 1.64.735 1.64 1.64v1.88a1.64 1.64 0 0 1-1.64 1.64z"/></g><g><path fill="#ebebeb" d="M76.534 253.998c0 10.553 12.096 19.122 27.005 19.122 14.909 0 27.017-8.57 27.017-19.122z"/></g><g><path fill="#f5f5f5" d="M178.978 266.638c0 3.578 12.083 6.482 27.005 6.482 14.922 0 27.005-2.904 27.005-6.482z"/></g><g><path fill="#f5f5f5" d="M178.978 261.88c0 3.578 12.083 6.482 27.005 6.482 14.922 0 27.005-2.904 27.005-6.482z"/></g><g><path fill="#f5f5f5" d="M241.064 266.638c0 3.578 12.083 6.482 27.005 6.482 14.922 0 27.005-2.904 27.005-6.482z"/></g><g><path fill="#f5f5f5" d="M241.064 261.88c0 3.578 12.083 6.482 27.005 6.482 14.922 0 27.005-2.904 27.005-6.482z"/></g><g><g><path fill="#f5f5f5" d="M23.743 468.324c0-8.105 112.54-14.675 251.366-14.675 138.825 0 251.366 6.57 251.366 14.675 0 8.106-112.54 14.676-251.366 14.676-138.826 0-251.366-6.57-251.366-14.676z"/></g></g><g><g><path fill="#ffb573" d="M196.61 457.356h10.138l2.074-23.478h-10.138z"/></g><g><path fill="#263238" d="M208.394 456.177h-12.368a.946.946 0 0 0-.894.7l-2.32 9.01a1.426 1.426 0 0 0 1.412 1.802c3.98-.065 6.897-.298 11.902-.298 3.085 0 12.355.311 16.62.311 4.265 0 4.952-4.2 3.228-4.59-7.779-1.698-13.548-4.057-15.972-6.313a2.36 2.36 0 0 0-1.608-.622z"/></g><g opacity=".2"><path d="M198.684 433.891h10.138l-1.076 12.096h-10.138z"/></g><g><path fill="#263238" d="M217.65 223.907s6.483 78.681 4.668 108.382c-2.048 32.515-9.827 111.351-9.827 111.351h-18.565s1.62-73.417.674-105.011c-1.063-36.054-11.94-114.229-11.94-114.229z"/></g><g><path fill="#68213d" d="M214.099 444.042h-21.871l.233-6.534 23.193-.428z"/></g><g><path fill="#68213d" d="M213.269 455.853c.107 0 .213.022.311.064 0 0 .13.091.13.286.03.329-.1.652-.35.868a4.888 4.888 0 0 1-3.604.182 10.086 10.086 0 0 1 3.513-1.4zm-1.582 2.1a3.15 3.15 0 0 0 1.97-.519c.39-.31.592-.801.532-1.296a.7.7 0 0 0-.376-.674c-1.115-.584-4.446 1.426-4.822 1.66a.246.246 0 0 0-.117.245c.012.093.078.17.169.195.864.229 1.75.36 2.644.389z"/></g><g><path fill="#68213d" d="M211.298 453.532h.104c.311 0 .337.182.337.246.104.662-1.296 2.347-2.32 3.138a6.003 6.003 0 0 1 1.296-3.177.907.907 0 0 1 .583-.259zm-2.204 4.11a.194.194 0 0 0 .117 0c1.076-.57 3.176-2.788 3.008-3.89a.752.752 0 0 0-.74-.635 1.4 1.4 0 0 0-1.036.311c-1.206.96-1.556 3.89-1.57 4.006a.22.22 0 0 0 .092.22.246.246 0 0 0 .13-.012z"/></g><g><path fill="#ffb573" d="M120.457 439.556l9.477 3.254 10.709-21.417-9.477-3.254z"/></g><g><path fill="#263238" d="M131.529 443.212l-9.866-7.091a.882.882 0 0 0-1.102.078l-7.04 6.223a1.49 1.49 0 0 0 .09 2.333c3.216 2.217 5.68 3.695 9.672 6.573 2.463 1.763 9.685 7.364 13.081 9.801 3.397 2.437 6.392-.674 5.186-1.996-5.186-5.873-8.479-11.189-9.075-14.456a2.32 2.32 0 0 0-.946-1.465z"/></g><g><path fill="#ffb573" d="M203.701 138.576l2.463-.545 2.593-.609c1.725-.428 3.449-.894 5.186-1.387 3.423-.998 6.793-2.1 10.047-3.358a76.274 76.274 0 0 0 9.309-4.265 38.48 38.48 0 0 0 7.7-5.445l.778-.752c.208-.246.415-.454.636-.713.44-.545.907-1.14 1.361-1.815.933-1.297 1.867-2.774 2.748-4.304a245.637 245.637 0 0 0 5.186-9.633c3.293-6.612 6.482-13.483 9.646-20.263l7.247 2.334a187.992 187.992 0 0 1-6.236 22.376c-1.297 3.682-2.593 7.377-4.33 11.072-.843 1.84-1.75 3.694-2.84 5.6a39.386 39.386 0 0 1-1.84 2.891c-.337.493-.765 1.011-1.141 1.504l-1.154 1.297a46.282 46.282 0 0 1-4.94 4.667 62.022 62.022 0 0 1-5.315 3.76 77.228 77.228 0 0 1-11.11 5.743 101.283 101.283 0 0 1-11.448 4.083 111.39 111.39 0 0 1-5.834 1.556c-.972.246-1.957.48-2.956.687-.998.208-1.931.376-3.111.584z"/></g><g><path fill="#68213d" d="M198.62 156.065c7.778 5.484 36.079-3.5 36.079-3.5l-3.89-25.009s-11.577 2.736-23.724 6.301c-8.258 2.385-17.01 16.244-8.466 22.208z"/></g><g><path fill="#ffb573" d="M260.096 89.545l1.919-10.696 9.749 6.236a11.409 11.409 0 0 1-5.51 7.156z"/></g><g><path fill="#ffb573" d="M264.763 72.769l7.546-2.697-.532 15.013-9.762-6.236z"/></g><g opacity=".2"><path d="M131.166 418.14l9.477 3.266-5.523 11.033-9.49-3.254z"/></g><g><path fill="#68213d" d="M162.319 136.489a224.682 224.682 0 0 1 3.319 33.707c.22 7.908.104 15.415-.182 22.234-.635 15.946-2.113 28.055-2.022 32.203l54.23-.674c12.705-57.147 1.465-87.613 1.465-87.613A103.092 103.092 0 0 0 206.372 134a87.585 87.585 0 0 0-2.775-.273 200.608 200.608 0 0 0-23.063.286c-1.452.09-2.93.22-4.37.363-7.363.713-13.845 2.113-13.845 2.113z"/></g><g><path fill="#fff" d="M180.47 133.96a200.602 200.602 0 0 1 23.063-.285c.933.078 1.867.169 2.774.273h.324c1.297 3.474 1.465 10.968-6.145 11.577-10.371.83-20.017-5.95-24.386-11.227 1.478-.117 2.969-.247 4.369-.337z"/></g><g opacity=".2"><path d="M174.557 151.839a44.078 44.078 0 0 1-8.854 23.011c0-1.543 0-3.111-.078-4.693-.169-5.938-.532-12.096-1.18-18.331z"/></g><g><path fill="#ffb573" d="M183.425 107.98c1.296 7.403 2.411 20.976-2.904 25.929a22.26 22.26 0 0 0 17.618 6.845c6.392-.207 6.807-4.68 5.446-7.13-8.233-1.867-7.87-8.012-6.288-13.794z"/></g><g opacity=".2"><path d="M189.077 112.79l8.207 7.04a24.335 24.335 0 0 0-.804 4.096c-3.15-.415-7.416-3.824-7.675-7.13a11.15 11.15 0 0 1 .272-4.006z"/></g><g><path fill="#263238" d="M211.506 87.224c6.197-3.098 3.357-12.601 3.357-12.601s-3.28-.078-6.858 3.89c1.62-4.901-1.102-12.887-2.01-15.986-12.432 5.393-13.262 10.605-13.262 10.605s-2.593-3.89-5.03-4.11a10.501 10.501 0 0 0-4.641 11.668 15.907 15.907 0 0 0-6.703-2.1 12.886 12.886 0 0 0 .428 8.984 7.597 7.597 0 0 0-3.306 3.358 18.643 18.643 0 0 0 3.604 1.776c-.194 3.89.636 9.257 3.436 12.29l28.521-13.327c4.823 2.087 6.975.583 6.975.583s-1.115-4.096-4.511-5.03z"/></g><g><path fill="#ffb573" d="M182.803 96.83c.376 10.035.09 15.947 5.043 21.042 7.454 7.649 19.952 2.904 22.584-7.156 2.372-9.075 1.296-23.933-8.388-27.809-9.685-3.876-19.628 3.954-19.24 13.924z"/></g><g><path fill="#263238" d="M192.06 85.565c.647 5.263-6.483 9.153-4.824 16.931a22.429 22.429 0 0 1-4.446 4.862l-2.891-7.921 1.439-14.52 9.645-.817z"/></g><g><path fill="#263238" d="M185.37 84.917c7.558 4.9 20.237 4.031 23.763 2.813-1.763-6.34-8.854-8.142-8.854-8.142s-11.889-1.076-14.91 5.329z"/></g><g><path fill="#263238" d="M200.953 110.677a7.105 7.105 0 0 1-6.042-2.917.285.285 0 0 1 .091-.363.246.246 0 0 1 .35.077 6.754 6.754 0 0 0 5.614 2.684.246.246 0 0 1 .246.26.26.26 0 0 1-.26.259z"/></g><g><path fill="#ffb573" d="M178.006 107.954a9.075 9.075 0 0 0 5.86 4.149c3.254.687 4.784-2.308 3.785-5.29-.907-2.683-3.682-6.261-6.91-5.6a4.395 4.395 0 0 0-2.735 6.741z"/></g><g opacity=".2"><path d="M191.385 248.475l-4.434 8.725c2.036 16.49 4.37 36.715 5.925 54.593 3.54-17.982 5.834-52.506-1.491-63.318z"/></g><g><path fill="#263238" d="M200.395 224.128s-12.601 71.9-18.228 101.251c-6.17 32.139-41.887 106.334-41.887 106.334l-17.36-5.964s28.69-73.896 31.802-105.607c3.54-36.054 8.647-95.573 8.647-95.573z"/></g><g><path fill="#68213d" d="M141.706 432.633l-20.458-7.026 2.32-6.197 21.832 7.052z"/></g><g><path fill="#263238" d="M197.97 99.45c0 .816.403 1.478.934 1.465.532-.013.986-.675.999-1.491.013-.817-.39-1.478-.934-1.465-.544.013-.985.674-.998 1.49z"/></g><g><path fill="#263238" d="M207.215 99.333c0 .817.401 1.478.933 1.465.532-.013.985-.674 1.011-1.491.026-.817-.402-1.465-.946-1.465-.545 0-.973.687-.998 1.49z"/></g><g><path fill="#ed893e" d="M204.272 99.826a28.314 28.314 0 0 0 3.733 6.948c-1.478 1.375-4.019.584-4.019.584z"/></g><g><path fill="#263238" d="M195.17 96.494a.48.48 0 0 0 .467-.182 3.993 3.993 0 0 1 3.125-1.646.493.493 0 0 0 .518-.454.454.454 0 0 0-.428-.506c-1.569.016-3.039.77-3.967 2.036a.493.493 0 0 0 .078.674c.064.04.134.066.208.078z"/></g><g><path fill="#263238" d="M211.26 96.105c.092.03.192.03.285 0a.493.493 0 0 0 .246-.636 4.525 4.525 0 0 0-3.397-2.592.493.493 0 0 0-.544.415.467.467 0 0 0 .402.531 3.643 3.643 0 0 1 2.593 2.14c.104.115.26.169.414.142z"/></g><g><path fill="#68213d" d="M135.6 445.74a.597.597 0 0 1 .22.22c.058.101.058.225 0 .325a1.011 1.011 0 0 1-.791.519c-.713.064-1.815-.636-2.982-1.906a9.257 9.257 0 0 1 3.552.843zm-2.464.856a2.982 2.982 0 0 0 1.867.687 1.49 1.49 0 0 0 1.167-.752.752.752 0 0 0 .078-.79c-.545-1.115-4.37-1.297-4.797-1.375a.246.246 0 0 0-.234.143.207.207 0 0 0 0 .26 11.135 11.135 0 0 0 1.92 1.827z"/></g><g><path fill="#68213d" d="M135.392 442.616h.078c.233.22.168.35.142.402-.298.622-2.346 1.296-3.656 1.296a6.08 6.08 0 0 1 2.866-1.918.817.817 0 0 1 .57.22zm-4.11 2.191c.034.013.07.013.104 0 1.18.143 4.149-.519 4.654-1.569a.765.765 0 0 0-.233-.946 1.296 1.296 0 0 0-.998-.337c-1.517.116-3.475 2.372-3.566 2.463a.246.246 0 0 0 0 .246.207.207 0 0 0 .04.143z"/></g><g><path fill="#ffb573" d="M171.887 152.059l-3.19 3.89a144.763 144.763 0 0 0-3.189 4.018 280.93 280.93 0 0 0-6.145 8.194c-1.958 2.774-3.89 5.574-5.626 8.4-1.738 2.827-3.41 5.705-4.771 8.583l-.273.544-.103.247a3.36 3.36 0 0 0-.234.61 14.263 14.263 0 0 0-.415 1.788 35.566 35.566 0 0 0-.466 4.499c-.13 3.202-.091 6.612.09 10.034.338 6.845.96 13.924 1.647 20.873l-7.416 1.724a147.587 147.587 0 0 1-5.769-21.21 94.054 94.054 0 0 1-1.478-11.266 51.45 51.45 0 0 1 0-6.17c.093-1.167.253-2.327.48-3.475.156-.635.272-1.232.519-1.958l.337-1.01.272-.675a107.877 107.877 0 0 1 10.605-20.16c2.048-3.111 4.2-6.119 6.482-9.075a181.193 181.193 0 0 1 3.461-4.343c1.18-1.439 2.347-2.8 3.695-4.304z"/></g><g><path fill="#68213d" d="M162.319 136.489c-9.646 1.374-20.108 24.087-20.108 24.087l18.254 17.269s7.571-11.422 13.807-22.506c6.78-12.07-.285-20.51-11.953-18.85z"/></g><g><path fill="#ffb573" d="M148.33 221.548l6.107 8.077-12.692 3.072s-3.63-8.077.518-10.63z"/></g><g><path fill="#ffb573" d="M154.23 238.09l-10.593 2.049-1.892-7.442 12.692-3.072z"/></g></g><g><g><path fill="#ffc3bd" d="M442.984 433.865l-9.567 4.097-13.263-20.523 9.555-4.11z"/></g><g opacity=".2"><path d="M429.722 413.33l-9.568 4.11L427 428.017l9.568-4.097z"/></g><g><path fill="#68213d" d="M355.164 227.148s16.853 84.84 25.293 114.087c9.244 32.138 41.15 86.485 41.15 86.485l17.514-7.52s-19.447-43.819-27.225-75.452c-8.803-36.015-20.977-120.568-20.977-120.568z"/></g><g opacity=".2"><path d="M369.113 251.508c2.165 23.583 2.684 40.19 3.579 58.444-4.434-19.369-9.166-41.823-12.602-58.444z"/></g><g><path fill="#ffc3bd" d="M373.145 457.655l-10.41-.156-2.386-24.14 10.398.156z"/></g><g opacity=".2"><path d="M360.35 433.36l1.231 12.445 10.41.169-1.231-12.446z"/></g><g><path fill="#68213d" d="M357.718 443.38l17.618.273s-6.949-68.465-9.23-100.81c-.7-9.84-.376-23.751.453-38.725 1.038-18.876 1.725-26.434 3.15-50.289 1.012-17.01 2.244-28.029 2.244-28.029l-36.47 2.995s-1.425 82.596 2.71 114.086c4.33 32.696 19.525 100.5 19.525 100.5z"/></g><g><path fill="#263238" d="M362.826 456.345l11.37.182a.882.882 0 0 1 .868.713l1.919 9.282a1.504 1.504 0 0 1-1.53 1.828c-4.097-.13-10.021-.466-15.168-.544-6.029-.091-6.716.155-13.781 0-4.266-.065-5.38-4.395-3.592-4.758 8.168-1.66 10.294-1.75 17.399-5.977a4.887 4.887 0 0 1 2.515-.726z"/></g><g><path fill="#68213d" d="M355.5 443.718l20.99.324.117-6.78-22.467-.726z"/></g><g opacity=".3"><path d="M355.5 443.718l20.99.324.117-6.78-22.467-.726z"/></g><g><path fill="#68213d" d="M356.253 455.904c.79-.259 3.046.636 4.68 1.452-2.295.35-4.006.22-4.641-.35a.933.933 0 0 1-.286-.803.285.285 0 0 1 .156-.26zm5.536 1.815a.311.311 0 0 0 .168-.207.246.246 0 0 0-.13-.246c-.466-.26-4.615-2.438-5.898-1.763a.804.804 0 0 0-.415.66c-.055.45.109.898.44 1.206 1.128 1.025 4.123.662 5.796.35z"/></g><g><path fill="#68213d" d="M359.079 453.52c.365-.035.728.088.998.336a5.678 5.678 0 0 1 1.297 3.228c-1.297-.79-2.93-2.593-2.8-3.293.025-.039.051-.207.259-.272zm2.71 4.2h.064a.272.272 0 0 0 .104-.221c0-.117-.246-2.93-1.556-4.032a1.776 1.776 0 0 0-1.36-.44c-.675 0-.882.388-.934.674-.208 1.166 2.255 3.461 3.5 4.044a.285.285 0 0 0 .182-.026z"/></g><g><path fill="#263238" d="M431.239 437.482L442.142 431a.907.907 0 0 1 1.127.156l6.483 6.897a1.53 1.53 0 0 1-.363 2.372c-3.54 2.022-6.223 3.345-10.631 5.977-2.723 1.62-8.997 5.665-12.744 7.895-3.747 2.23-6.379-1.102-5.186-2.424 5.653-5.964 8.194-9.672 9.218-12.965.2-.61.627-1.12 1.193-1.426z"/></g><g><path fill="#ffc3bd" d="M277.702 90.193l2.022-9.075-10.747-3.124s-3.267 8.776 3.046 12.964z"/></g><g><path fill="#ffc3bd" d="M278.324 72.328l-8.349-4.486-1.024 10.203 10.747 3.125z"/></g><g><path fill="#68213d" d="M329.974 156.44c-3.993-1.114-7.61-2.346-11.357-3.694a168.345 168.345 0 0 1-11.02-4.42c-3.642-1.608-7.247-3.294-10.825-5.187-1.789-.907-3.565-1.944-5.341-2.955l-2.593-1.621-.661-.402-.985-.648a28.947 28.947 0 0 1-1.828-1.4 27.86 27.86 0 0 1-5.25-6.068 44.459 44.459 0 0 1-3.32-6.119 70.568 70.568 0 0 1-3.993-12.057 108.992 108.992 0 0 1-2.943-23.906l9.555-1.296a205.622 205.622 0 0 0 7.143 20.743 67.666 67.666 0 0 0 4.564 9.152 28.907 28.907 0 0 0 2.593 3.67c.728.872 1.57 1.644 2.502 2.294.154.104.315.199.48.285.083.02.162.056.233.104l.596.272 2.36 1.141c1.633.726 3.24 1.465 4.9 2.165 3.306 1.413 6.703 2.723 10.125 4.02 3.423 1.296 6.884 2.592 10.372 3.733l10.371 3.54z"/></g><g><path fill="#ffc3bd" d="M364.355 106.308c-.751 7.713-.881 21.74 4.914 26.278-3.72 4.5-8.634 9.75-17.606 10.942-8.97 1.193-7.999-5.185-5.937-8.647 8.258-2.839 7.428-9.075 5.38-14.831z"/></g><g><path fill="#263238" d="M340.838 98.814c-.09.843-.596 1.478-1.14 1.426-.545-.051-.921-.777-.843-1.62.077-.843.596-1.465 1.14-1.413.545.052.92.778.843 1.607z"/></g><g><path fill="#ed847e" d="M340.54 99.631a29.817 29.817 0 0 1-4.693 6.755 4.81 4.81 0 0 0 3.89 1.14z"/></g><g><path fill="#263238" d="M343.068 95.69a.48.48 0 0 1-.298-.35 3.89 3.89 0 0 0-2.217-2.787.496.496 0 1 1 .337-.934 4.94 4.94 0 0 1 2.84 3.5.493.493 0 0 1-.377.584.428.428 0 0 1-.285-.013z"/></g><g><path fill="#ffc3bd" d="M369.36 99.488c-2.01 10.139-2.67 16.167-8.53 20.743-8.83 6.846-20.809.467-21.872-10.06-.959-9.477 2.477-24.45 13.03-27.225a14.092 14.092 0 0 1 17.372 16.542z"/></g><g><path fill="#263238" d="M348.785 102.315c-2.917-3.358-1.828-10.592 0-14.054-2.152 1.375-9.477.882-9.516-4.861-.064-8.414 14.08-10.372 21.832-8.894 8.933 1.763 16.945 10.138 20.03 7.247 3.177 5.6-2.385 7.558-2.385 7.558s5.523 13.937-14.689 27.589a23.037 23.037 0 0 0-8.323.35 2.398 2.398 0 0 1-1.672-.687c-2.049-2.049-7.65-8.375-5.277-14.248z"/></g><g><path fill="#263238" d="M377.981 89s3.812.804 5.108-1.646"/></g><g><path fill="#ffc3bd" d="M355.488 105.53a9.801 9.801 0 0 1-5.912 4.615c-3.319.882-4.952-2.1-3.993-5.186.856-2.813 3.63-6.65 6.949-6.17 3.319.479 4.473 3.966 2.956 6.74z"/></g><g><path fill="#68213d" d="M395.068 141.441c1.49 1.426 2.71 2.71 3.993 4.084a99.234 99.234 0 0 1 3.682 4.148c2.398 2.788 4.68 5.679 6.91 8.609 2.23 2.93 4.356 5.937 6.365 9.075l1.699 2.476c.635.933 1.154 1.893 1.698 2.84a45.834 45.834 0 0 1 2.658 5.833 60.158 60.158 0 0 1 3.15 11.668 78.39 78.39 0 0 1 1.102 11.564c.116 3.78.003 7.564-.337 11.331a88.273 88.273 0 0 1-1.66 11.227l-9.58-1.05c-.169-3.228-.415-6.754-.791-10.099a140.139 140.139 0 0 0-1.478-9.983 68.501 68.501 0 0 0-5.717-18.072 37.189 37.189 0 0 0-2.165-3.682c-.402-.557-.778-1.14-1.193-1.646-.233-.272-.376-.48-.661-.804l-.843-.985c-2.282-2.593-4.537-5.186-6.858-7.779-2.32-2.593-4.615-5.186-6.923-7.662l-6.806-7.454z"/></g><g><path fill="#263238" d="M369.412 149.673c-1.66 7.507 21.378 21.171 21.378 21.171l18.228-15.557a135.985 135.985 0 0 0-15.558-18.526c-9.45-9.412-21.352.752-24.048 12.912z"/></g><g opacity=".2"><path d="M385.423 157.543c-3.293-1.802-3.799 2.307-3.293 7.532 4.589 3.358 8.647 5.77 8.647 5.77l2.32-1.984c-1.828-4.784-4.369-9.516-7.674-11.318z"/></g><g><path fill="#ffc3bd" d="M414.54 221.613l-4.796 6.404 11.525 4.758s3.008-5.186 2.372-9.075a3.89 3.89 0 0 0-2.968-3.047l-2.1-.492a3.89 3.89 0 0 0-4.033 1.452z"/></g><g><path fill="#ffc3bd" d="M407.423 238.298l10.864 2.411 2.982-7.934-11.525-4.758z"/></g><g><path fill="#263238" d="M389.584 138.407c-4.719 39.853 7.986 89.04 8.297 97.233-8.141.674-48.383 4.382-65.094 5.743-9.697-70.954-.765-104.61-.765-104.61s3.462-1.114 8.22-2.19c1.49-.337 3.111-.661 4.797-.96.92-.168 1.88-.31 2.839-.453a208.611 208.611 0 0 1 23.634-1.063c1.49 0 3.02 0 4.498.116 1.478.117 2.71.156 3.98.247 1.958.155 3.773.337 5.316.505a4.862 4.862 0 0 1 4.278 5.432z"/></g><g opacity=".2"><path d="M329.248 155.922c-.194 2.036-.35 4.253-.48 6.638 3.682-.363 8.155-1.296 10.048-3.423 2.307-2.696-4.745-3.176-9.568-3.215z"/></g><g><path fill="#263238" d="M343.133 159.552c-8.907 4.408-25.773-3.111-25.773-3.111l.272-26.15s18.215 2.93 31.114 2.801c13.224-.13 4.149 21.612-5.613 26.46z"/></g><g><path fill="#68213d" d="M419.674 428.99l20.627-8.841-2.645-6.171-23.4 7.7z"/></g><g opacity=".3"><path d="M419.674 428.99l20.627-8.841-2.645-6.171-23.4 7.7z"/></g><g><path fill="#68213d" d="M430.577 439.155h-.014l.014-.013zm-3.267 1.724a1.011 1.011 0 0 1-.752-.597.285.285 0 0 1 0-.324c.337-.556 2.425-.776 4.005-.803-1.291 1.21-2.58 1.84-3.253 1.724zm1.906-.091a12.236 12.236 0 0 0 2.152-1.711.233.233 0 0 0 0-.26.22.22 0 0 0-.22-.155c-.454 0-4.382-.065-5.07 1.024a.778.778 0 0 0 0 .817c.204.45.616.77 1.103.855a3.06 3.06 0 0 0 2.035-.57z"/></g><g><path fill="#68213d" d="M427.35 436.536a.96.96 0 0 1 .609-.104c.985.156 2.165 1.478 2.722 2.178-1.296-.156-3.358-.96-3.604-1.608 0-.064-.065-.207.182-.401zm3.966 2.593a.39.39 0 0 0 .104-.104.246.246 0 0 0 0-.246c-.078-.104-1.828-2.593-3.37-2.788a1.297 1.297 0 0 0-1.064.26.804.804 0 0 0-.337.959c.402 1.115 3.358 1.996 4.577 1.958z"/></g></g><g><g opacity=".9"><path fill="#68213d" d="M270.027 35.73v-7.351h1.517v7.35z"/></g><g opacity=".9"><path fill="#68213d" d="M270.027 57.899V39.32h1.517v18.578z"/></g><g opacity=".9"><path fill="#68213d" d="M280.489 66.305l-1.072-1.074 7.952-7.943 1.072 1.073z"/></g><g opacity=".9"><path fill="#68213d" d="M289.162 75.738V74.22h11.733v1.517z"/></g><g opacity=".9"><path fill="#68213d" d="M261.06 66.334L249.81 55.086l1.073-1.073 11.248 11.248z"/></g><g opacity=".9"><path fill="#68213d" d="M247.158 75.738V74.22h5.25v1.517z"/></g></g></g></svg>