<svg xmlns="http://www.w3.org/2000/svg" width="85" height="251" viewBox="0 0 85 251"><g><g><path fill="#e0e0e0" d="M63.952 143.12c-6.438 4.55-15.49 13.061-24.08 25.332-5.733 8.171-9.448 16.858-11.635 28.595.935-13.366 2.02-27.714 3.014-41.263 1.79-3.379 5.885-11.175 8.863-17.344 9.931-20.597 13.47-25.594 22.336-43.334C74.304 71.408 86.715 43.24 83.578 45.345c-6.396 4.283-32.686 46.185-35.632 52.239a174.765 174.765 0 0 0-16.186 51.25c.894-12.784 1.8-24.4 2.477-33.416 2.22-29.406 3.384-38.867 3.833-41.779 1.045-1.422 2.27-3.076 2.986-3.96 6.016-7.522 8.59-14.093 14.55-25.52C64.072 27.992 72.42-1.195 70.48.164 62.396 5.858 55.441 18.803 46.322 35.3c-9.12 16.496-7.538 26.452-10.125 40.894-.525 2.837-1.535 13.605-2.765 28.527-.932-16.066-4.058-26.82-10.423-36.842-7.828-12.332-15.643-20.832-21.49-25.4-5.848-4.566 8.875 25.406 15.996 38.494 6.34 11.703 12.218 22.03 15.28 32.02-1.614 20.244-3.5 45.877-5.167 69.716-1.077-10.984-3.258-22.898-6.623-32.232-4.05-11.215-10.276-28.422-15.773-34.495-1.311-1.458 3.985 31.534 8.24 40.497 4.256 8.964 7.254 17.361 9.969 22.468.628 1.212 2.692 5.76 3.863 8.388-2.037 29.138-3.672 54.859-4.029 63.629l1.256.087c.076-2.26 1.09-17.092 2.497-36.71 3.778-10.433 11.555-22.106 18.049-32.795 7.07-11.57 25.31-42.94 18.875-38.425z"/></g></g></svg>